<?xml version="1.0" encoding="UTF-8"?>
<svg width="128pt" height="128pt" version="1.1" viewBox="0 0 128 128" xmlns="http://www.w3.org/2000/svg">
 <g>
  <path d="m33.75 32.5c0 0.69922 0.55078 1.25 1.25 1.25h10c0.69922 0 1.25-0.55078 1.25-1.25s-0.55078-1.25-1.25-1.25h-10c-0.69922 0-1.25 0.55078-1.25 1.25z"/>
  <path d="m25 31.25h-10c-0.69922 0-1.25 0.55078-1.25 1.25s0.55078 1.25 1.25 1.25h10c0.69922 0 1.25-0.55078 1.25-1.25s-0.55078-1.25-1.25-1.25z"/>
  <path d="m45 41.25h-10c-0.69922 0-1.25 0.55078-1.25 1.25s0.55078 1.25 1.25 1.25h10c0.69922 0 1.25-0.55078 1.25-1.25s-0.55078-1.25-1.25-1.25z"/>
  <path d="m25 41.25h-10c-0.69922 0-1.25 0.55078-1.25 1.25s0.55078 1.25 1.25 1.25h10c0.69922 0 1.25-0.55078 1.25-1.25s-0.55078-1.25-1.25-1.25z"/>
  <path d="m45 51.25h-10c-0.69922 0-1.25 0.55078-1.25 1.25s0.55078 1.25 1.25 1.25h10c0.69922 0 1.25-0.55078 1.25-1.25s-0.55078-1.25-1.25-1.25z"/>
  <path d="m25 51.25h-10c-0.69922 0-1.25 0.55078-1.25 1.25s0.55078 1.25 1.25 1.25h10c0.69922 0 1.25-0.55078 1.25-1.25s-0.55078-1.25-1.25-1.25z"/>
  <path d="m45 61.25h-10c-0.69922 0-1.25 0.55078-1.25 1.25s0.55078 1.25 1.25 1.25h10c0.69922 0 1.25-0.55078 1.25-1.25s-0.55078-1.25-1.25-1.25z"/>
  <path d="m25 61.25h-10c-0.69922 0-1.25 0.55078-1.25 1.25s0.55078 1.25 1.25 1.25h10c0.69922 0 1.25-0.55078 1.25-1.25s-0.55078-1.25-1.25-1.25z"/>
  <path d="m82.5 63.75h7.5c0.69922 0 1.25-0.55078 1.25-1.25s-0.55078-1.25-1.25-1.25h-7.5c-0.69922 0-1.25 0.55078-1.25 1.25s0.55078 1.25 1.25 1.25z"/>
  <path d="m72.5 61.25h-7.5c-0.69922 0-1.25 0.55078-1.25 1.25s0.55078 1.25 1.25 1.25h7.5c0.69922 0 1.25-0.55078 1.25-1.25s-0.55078-1.25-1.25-1.25z"/>
  <path d="m45 71.25h-10c-0.69922 0-1.25 0.55078-1.25 1.25s0.55078 1.25 1.25 1.25h10c0.69922 0 1.25-0.55078 1.25-1.25s-0.55078-1.25-1.25-1.25z"/>
  <path d="m25 71.25h-10c-0.69922 0-1.25 0.55078-1.25 1.25s0.55078 1.25 1.25 1.25h10c0.69922 0 1.25-0.55078 1.25-1.25s-0.55078-1.25-1.25-1.25z"/>
  <path d="m45 81.25h-10c-0.69922 0-1.25 0.55078-1.25 1.25s0.55078 1.25 1.25 1.25h10c0.69922 0 1.25-0.55078 1.25-1.25s-0.55078-1.25-1.25-1.25z"/>
  <path d="m25 81.25h-10c-0.69922 0-1.25 0.55078-1.25 1.25s0.55078 1.25 1.25 1.25h10c0.69922 0 1.25-0.55078 1.25-1.25s-0.55078-1.25-1.25-1.25z"/>
  <path d="m45 91.25h-10c-0.69922 0-1.25 0.55078-1.25 1.25s0.55078 1.25 1.25 1.25h10c0.69922 0 1.25-0.55078 1.25-1.25s-0.55078-1.25-1.25-1.25z"/>
  <path d="m25 91.25h-10c-0.69922 0-1.25 0.55078-1.25 1.25s0.55078 1.25 1.25 1.25h10c0.69922 0 1.25-0.55078 1.25-1.25s-0.55078-1.25-1.25-1.25z"/>
  <path d="m45 101.25h-10c-0.69922 0-1.25 0.55078-1.25 1.25s0.55078 1.25 1.25 1.25h10c0.69922 0 1.25-0.55078 1.25-1.25s-0.55078-1.25-1.25-1.25z"/>
  <path d="m25 101.25h-10c-0.69922 0-1.25 0.55078-1.25 1.25s0.55078 1.25 1.25 1.25h10c0.69922 0 1.25-0.55078 1.25-1.25s-0.55078-1.25-1.25-1.25z"/>
  <path d="m45 111.25h-10c-0.69922 0-1.25 0.55078-1.25 1.25s0.55078 1.25 1.25 1.25h10c0.69922 0 1.25-0.55078 1.25-1.25s-0.55078-1.25-1.25-1.25z"/>
  <path d="m25 111.25h-10c-0.69922 0-1.25 0.55078-1.25 1.25s0.55078 1.25 1.25 1.25h10c0.69922 0 1.25-0.55078 1.25-1.25s-0.55078-1.25-1.25-1.25z"/>
  <path d="m82.5 73.75h7.5c0.69922 0 1.25-0.55078 1.25-1.25s-0.55078-1.25-1.25-1.25h-7.5c-0.69922 0-1.25 0.55078-1.25 1.25s0.55078 1.25 1.25 1.25z"/>
  <path d="m72.5 71.25h-7.5c-0.69922 0-1.25 0.55078-1.25 1.25s0.55078 1.25 1.25 1.25h7.5c0.69922 0 1.25-0.55078 1.25-1.25s-0.55078-1.25-1.25-1.25z"/>
  <path d="m82.5 83.75h2.5c0.69922 0 1.25-0.55078 1.25-1.25s-0.55078-1.25-1.25-1.25h-2.5c-0.69922 0-1.25 0.55078-1.25 1.25s0.55078 1.25 1.25 1.25z"/>
  <path d="m72.5 81.25h-7.5c-0.69922 0-1.25 0.55078-1.25 1.25s0.55078 1.25 1.25 1.25h7.5c0.69922 0 1.25-0.55078 1.25-1.25s-0.55078-1.25-1.25-1.25z"/>
  <path d="m72.5 91.25h-7.5c-0.69922 0-1.25 0.55078-1.25 1.25s0.55078 1.25 1.25 1.25h7.5c0.69922 0 1.25-0.55078 1.25-1.25s-0.55078-1.25-1.25-1.25z"/>
  <path d="m72.5 101.25h-7.5c-0.69922 0-1.25 0.55078-1.25 1.25s0.55078 1.25 1.25 1.25h7.5c0.69922 0 1.25-0.55078 1.25-1.25s-0.55078-1.25-1.25-1.25z"/>
  <path d="m72.5 111.25h-7.5c-0.69922 0-1.25 0.55078-1.25 1.25s0.55078 1.25 1.25 1.25h7.5c0.69922 0 1.25-0.55078 1.25-1.25s-0.55078-1.25-1.25-1.25z"/>
  <path d="m102.5 81.25c-0.39844 0-0.82422 0.023438-1.25 0.050781v-28.801c0-0.69922-0.55078-1.25-1.25-1.25h-6.25v-11.25c0-0.69922-0.55078-1.25-1.25-1.25h-6.25v-11.25c0-0.69922-0.55078-1.25-1.25-1.25h-12.5c-0.69922 0-1.25 0.55078-1.25 1.25v11.25h-6.25c-0.69922 0-1.25 0.55078-1.25 1.25v11.25h-7.5v-23.75c0-0.5-0.30078-0.97656-0.77344-1.1484l-11.727-4.7031v-16.648c0-0.69922-0.55078-1.25-1.25-1.25s-1.25 0.55078-1.25 1.25v15.648l-35.773-14.297c-0.375-0.14844-0.82422-0.10156-1.1758 0.125-0.35156 0.22266-0.55078 0.59766-0.55078 1.0234v115c0 0.69922 0.55078 1.25 1.25 1.25h95c0.17578 0 0.35156-0.023438 0.5-0.10156 0.69922 0.074218 1.3516 0.10156 2 0.10156 11.727 0 21.25-9.5234 21.25-21.25s-9.5234-21.25-21.25-21.25zm-48.75-28.75v68.75h-47.5v-111.9l35.773 14.301 11.727 4.6992zm20-23.75h10v10h-10zm-7.5 12.5h25v10h-25zm-10 80v-67.5h42.5v27.824c-0.17578 0.023437-0.32422 0.074219-0.5 0.10156-0.125 0.023438-0.27344 0.050781-0.39844 0.074219-0.19922 0.050781-0.39844 0.10156-0.57422 0.14844-0.125 0.023437-0.22656 0.050781-0.35156 0.074218-0.25 0.074219-0.52344 0.14844-0.77344 0.22656-0.050782 0.023437-0.10156 0.023437-0.14844 0.050781-0.30078 0.10156-0.60156 0.19922-0.89844 0.30078-0.074219 0.023438-0.17578 0.074219-0.25 0.10156-0.19922 0.074218-0.42578 0.14844-0.625 0.25-0.10156 0.050781-0.22656 0.10156-0.32422 0.14844-0.17578 0.074219-0.35156 0.14844-0.55078 0.25-0.125 0.050781-0.22656 0.125-0.35156 0.17578-0.17578 0.074219-0.32422 0.17578-0.5 0.25-0.125 0.074219-0.22656 0.125-0.35156 0.19922-0.14844 0.10156-0.32422 0.17578-0.47656 0.27344-0.125 0.074219-0.22656 0.14844-0.35156 0.22656-0.14844 0.10156-0.30078 0.17578-0.44922 0.27344-0.125 0.074219-0.22656 0.14844-0.35156 0.22656-0.14844 0.10156-0.27344 0.19922-0.42578 0.30078-0.125 0.074219-0.22656 0.17578-0.32422 0.25-0.14844 0.10156-0.27344 0.19922-0.39844 0.30078-0.10156 0.074218-0.22656 0.17578-0.32422 0.27344-0.125 0.10156-0.27344 0.22656-0.39844 0.32422-0.10156 0.10156-0.19922 0.17578-0.32422 0.27344-0.125 0.125-0.25 0.22656-0.375 0.35156-0.10156 0.10156-0.19922 0.19922-0.30078 0.30078-0.125 0.125-0.25 0.22656-0.35156 0.35156-0.10156 0.10156-0.19922 0.19922-0.30078 0.30078-0.125 0.125-0.22656 0.25-0.35156 0.375-0.10156 0.10156-0.19922 0.22656-0.27344 0.32422-0.10156 0.125-0.22656 0.25-0.32422 0.375-0.10156 0.10156-0.17578 0.22656-0.27344 0.32422-0.10156 0.125-0.19922 0.27344-0.30078 0.39844-0.074218 0.125-0.17578 0.22656-0.25 0.35156-0.10156 0.125-0.19922 0.27344-0.27344 0.39844s-0.14844 0.22656-0.25 0.35156c-0.10156 0.14844-0.17578 0.27344-0.27344 0.42578-0.074219 0.125-0.14844 0.25-0.22656 0.375-0.074219 0.14844-0.17578 0.27344-0.25 0.42578-0.074219 0.125-0.14844 0.25-0.19922 0.375-0.074218 0.14844-0.14844 0.30078-0.22656 0.44922-0.074219 0.125-0.125 0.25-0.19922 0.375-0.074219 0.14844-0.14844 0.30078-0.22656 0.44922-0.050781 0.125-0.125 0.25-0.17578 0.39844-0.074219 0.14844-0.125 0.30078-0.19922 0.47656-0.050781 0.125-0.10156 0.27344-0.14844 0.39844-0.050781 0.14844-0.125 0.32422-0.17578 0.47656-0.050782 0.125-0.10156 0.27344-0.14844 0.39844-0.050781 0.14844-0.10156 0.32422-0.14844 0.5-0.050781 0.125-0.074219 0.27344-0.125 0.39844-0.050781 0.17578-0.10156 0.32422-0.125 0.5-0.023438 0.14844-0.074219 0.27344-0.10156 0.39844-0.050781 0.17578-0.074218 0.35156-0.10156 0.52344-0.023438 0.125-0.050782 0.27344-0.074219 0.39844-0.023437 0.17578-0.050781 0.35156-0.10156 0.55078-0.023437 0.125-0.050781 0.27344-0.074218 0.39844-0.023438 0.19922-0.050782 0.375-0.074219 0.57422-0.023437 0.125-0.023437 0.25-0.050781 0.375-0.023438 0.22656-0.023438 0.42578-0.050782 0.64844 0 0.10156-0.023437 0.22656-0.023437 0.32422-0.023437 0.32422-0.023437 0.64844-0.023437 0.97656 0 0.30078 0 0.60156 0.023437 0.89844 0 0.10156 0 0.17578 0.023437 0.27344 0 0.22656 0.023438 0.44922 0.050782 0.64844 0 0.10156 0.023437 0.17578 0.023437 0.27344 0.023438 0.30078 0.050781 0.57422 0.10156 0.85156v0.023437c0.050781 0.30078 0.10156 0.57422 0.14844 0.875 0.023438 0.074219 0.023438 0.17578 0.050781 0.25 0.050782 0.19922 0.074219 0.42578 0.125 0.625 0.023438 0.074219 0.050782 0.17578 0.050782 0.25 0.074218 0.27344 0.125 0.55078 0.19922 0.80078v0.023437c0.074219 0.27344 0.17578 0.55078 0.25 0.82422 0.023438 0.074218 0.050782 0.14844 0.074219 0.25 0.074219 0.19922 0.14844 0.39844 0.22656 0.60156 0.023437 0.074219 0.050781 0.17578 0.10156 0.25 0.10156 0.25 0.19922 0.5 0.30078 0.75 0 0.023438 0.023437 0.023438 0.023437 0.050782 0.125 0.25 0.22656 0.52344 0.35156 0.77344 0.023437 0.074219 0.074218 0.14844 0.125 0.22656 0.10156 0.17578 0.19922 0.375 0.30078 0.55078 0.050781 0.074219 0.074219 0.14844 0.125 0.22656 0.125 0.22656 0.25 0.44922 0.39844 0.67578 0 0.023438 0.023438 0.023438 0.023438 0.050782 0.14844 0.25 0.30078 0.47656 0.44922 0.72656 0.050782 0.074219 0.10156 0.14844 0.14844 0.19922 0.125 0.17578 0.22656 0.35156 0.35156 0.5 0.050782 0.074219 0.10156 0.14844 0.14844 0.19922 0.14844 0.19922 0.30078 0.39844 0.47656 0.60156 0.023438 0.023438 0.023438 0.050782 0.050782 0.050782 0.17578 0.22656 0.35156 0.42578 0.55078 0.64844 0.050781 0.074219 0.10156 0.125 0.17578 0.17578 0.14844 0.14844 0.27344 0.30078 0.42578 0.44922 0.050781 0.074219 0.125 0.125 0.17578 0.19922 0.17578 0.17578 0.35156 0.35156 0.55078 0.52344 0.023438 0.023438 0.050781 0.050781 0.074219 0.050781 0.19922 0.19922 0.42578 0.375 0.625 0.57422 0.050781 0.050781 0.125 0.10156 0.19922 0.14844 0.14844 0.125 0.32422 0.27344 0.47656 0.39844 0.074219 0.050782 0.125 0.10156 0.19922 0.17578 0.19922 0.14844 0.39844 0.30078 0.60156 0.44922 0.023438 0.023438 0.050781 0.050782 0.074219 0.050782 0.22656 0.17578 0.44922 0.32422 0.69922 0.47656 0.074219 0.050781 0.14844 0.10156 0.19922 0.125 0.17578 0.125 0.35156 0.22656 0.52344 0.32422 0.074219 0.050781 0.14844 0.10156 0.22656 0.125 0.22656 0.125 0.42578 0.25 0.64844 0.375 0.023437 0.023437 0.050781 0.023437 0.10156 0.050781h0.023437l-36.203 0.011719zm46.25 0c-0.75 0-1.5234-0.050781-2.3516-0.14844-9.3516-1.1758-16.398-9.1758-16.398-18.602 0-1.7734 0.25-3.5 0.72656-5.125 1.3984-4.8984 4.7266-9.0234 9.1758-11.398 0.074218-0.023437 0.125-0.074218 0.19922-0.10156 0.25-0.125 0.47656-0.25 0.72656-0.35156 1.7266-0.80078 3.6016-1.375 5.6016-1.625 0.80078-0.10156 1.6016-0.14844 2.3516-0.14844 10.352 0 18.75 8.3984 18.75 18.75-0.03125 10.352-8.4297 18.75-18.781 18.75z"/>
  <path d="m112.5 101.25h-8.75v-8.75c0-0.69922-0.55078-1.25-1.25-1.25s-1.25 0.55078-1.25 1.25v8.75h-8.75c-0.69922 0-1.25 0.55078-1.25 1.25s0.55078 1.25 1.25 1.25h8.75v8.75c0 0.69922 0.55078 1.25 1.25 1.25s1.25-0.55078 1.25-1.25v-8.75h8.75c0.69922 0 1.25-0.55078 1.25-1.25s-0.55078-1.25-1.25-1.25z"/>
 </g>
</svg>
