<?xml version="1.0" encoding="UTF-8"?>
<svg width="128pt" height="128pt" version="1.1" viewBox="0 0 128 128" xmlns="http://www.w3.org/2000/svg">
 <g fill-rule="evenodd">
  <path d="m38.461 96.801h51.074v-14.668c0-8.0859-5.1797-14.664-11.551-14.664h-27.973c-6.3711 0-11.551 6.5781-11.551 14.664zm52.309 2.4688h-53.543c-0.67969 0-1.2344-0.55078-1.2344-1.2344v-15.898c0-9.4453 6.2891-17.133 14.02-17.133h27.973c7.7305 0 14.02 7.6875 14.02 17.133v15.898c0 0.67969-0.55469 1.2344-1.2344 1.2344z"/>
  <path d="m64 31.199c-6.9609 0-12.625 5.6641-12.625 12.625 0 6.9609 5.6641 12.625 12.625 12.625s12.625-5.6641 12.625-12.625c0-6.9609-5.6641-12.625-12.625-12.625zm0 27.719c-8.3242 0-15.094-6.7734-15.094-15.094 0-8.3242 6.7695-15.094 15.094-15.094 8.3203 0 15.094 6.7695 15.094 15.094 0 8.3203-6.7734 15.094-15.094 15.094z"/>
  <path d="m119.27 99.27h-28.496c-0.67969 0-1.2344-0.55078-1.2344-1.2344 0-0.67969 0.55078-1.2344 1.2344-1.2344h27.262v-10.945c0-6.0352-3.8398-10.945-8.5625-10.945h-20.676c-0.67969 0-1.2344-0.55078-1.2344-1.2344 0-0.67969 0.55078-1.2344 1.2344-1.2344h20.676c6.082 0 11.027 6.0156 11.027 13.414v12.18c0 0.67969-0.55469 1.2344-1.2344 1.2344z"/>
  <path d="m98.758 47.121c-5.1719 0-9.3828 4.2109-9.3828 9.3867 0 5.1719 4.2109 9.3828 9.3828 9.3828 5.1758 0 9.3867-4.2109 9.3867-9.3828 0-5.1719-4.2109-9.3867-9.3867-9.3867zm0 21.234c-6.5352 0-11.852-5.3164-11.852-11.852s5.3164-11.852 11.852-11.852c6.5352 0 11.852 5.3164 11.852 11.852s-5.3164 11.852-11.848 11.852z"/>
  <path d="m37.23 99.27h-28.496c-0.67969 0-1.2344-0.55078-1.2344-1.2344v-12.18c0-7.3945 4.9453-13.414 11.027-13.414h20.676c0.67969 0 1.2344 0.55078 1.2344 1.2344 0 0.67969-0.55078 1.2344-1.2344 1.2344h-20.676c-4.7227 0-8.5625 4.9102-8.5625 10.945v10.945h27.262c0.67969 0 1.2344 0.55078 1.2344 1.2344 0 0.67969-0.55078 1.2344-1.2344 1.2344z"/>
  <path d="m29.242 47.121c-5.1758 0-9.3867 4.2109-9.3867 9.3867 0 5.1719 4.2109 9.3828 9.3867 9.3828 5.1719 0 9.3828-4.2109 9.3828-9.3828 0-5.1719-4.2109-9.3867-9.3828-9.3867zm0 21.234c-6.5352 0-11.852-5.3164-11.852-11.852s5.3164-11.852 11.852-11.852c6.5312 0 11.852 5.3164 11.852 11.852s-5.3164 11.852-11.852 11.852z"/>
  <path d="m48.25 99.27c-0.68359 0-1.2344-0.55078-1.2344-1.2344v-7.418c0-0.67969 0.55078-1.2344 1.2344-1.2344 0.67969 0 1.2344 0.55078 1.2344 1.2344v7.418c0 0.67969-0.55469 1.2344-1.2344 1.2344z"/>
  <path d="m79.75 99.27c-0.67969 0-1.2344-0.55078-1.2344-1.2344v-7.418c0-0.67969 0.55078-1.2344 1.2344-1.2344 0.67969 0 1.2344 0.55078 1.2344 1.2344v7.418c0 0.67969-0.55469 1.2344-1.2344 1.2344z"/>
 </g>
</svg>
