<?xml version="1.0" encoding="UTF-8"?>
<svg width="128pt" height="128pt" version="1.1" viewBox="0 0 128 128" xmlns="http://www.w3.org/2000/svg">
 <g>
  <path d="m75.422 89.281h-23c-0.41406 0.003906-0.78516-0.25391-0.92188-0.64062-20.578-55.242 10.5-87.02 11.719-88.359 0.38281-0.37891 1-0.37891 1.3828 0 2 1.8398 32.441 32.621 11.68 88.32-0.11328 0.38672-0.45703 0.66016-0.85938 0.67969zm-22.301-2h21.617c18.602-50.762-6.1406-80-10.801-84.922-4.5977 5.082-29.098 35.102-10.816 84.961z"/>
  <path d="m74.898 96.578h-21.797c-0.30469 0.003906-0.59375-0.13672-0.78125-0.37891-0.1875-0.23828-0.25391-0.54688-0.17969-0.83984l1.8594-7.3594c0.14062-0.51562 0.66797-0.82422 1.1875-0.69141 0.51562 0.12891 0.83594 0.65234 0.71094 1.1719l-1.5391 6h19.281l-1.5391-6c-0.125-0.51953 0.19531-1.043 0.71094-1.1719 0.51953-0.13281 1.0469 0.17578 1.1875 0.69141l1.8594 7.3008c0.066406 0.29297 0 0.59766-0.17969 0.83984-0.17188 0.26172-0.46484 0.42578-0.78125 0.4375z"/>
  <path d="m93.48 93.141c-0.25 0-0.49609-0.089844-0.67969-0.26172-4.5664-3.9453-10.078-6.6328-16-7.8008-0.51172-0.089844-0.86328-0.5625-0.80078-1.0781 0.10938-0.52344 0.60938-0.875 1.1406-0.80078 5.7148 1.1133 11.09 3.543 15.699 7.1016 2.6797-22-6.6602-33-10.898-36.738v-0.003906c-0.41016-0.35938-0.44922-0.98047-0.089844-1.3867 0.35938-0.41016 0.98047-0.44922 1.3867-0.09375 4.5781 4 14.859 16.102 11.301 40.281-0.046874 0.37109-0.30469 0.68359-0.66016 0.80078z"/>
  <path d="m34.52 93.141h-0.32031c-0.35547-0.12109-0.60938-0.42969-0.66016-0.80078-3.5391-24.199 6.6992-36.238 11.281-40.34 0.38672-0.38281 1.0117-0.38281 1.3984 0 0.17578 0.19922 0.26562 0.45703 0.24609 0.72266-0.019532 0.26172-0.14453 0.50781-0.34375 0.67578-4.2188 3.7383-13.559 14.699-10.859 36.738v0.003906c4.543-3.5469 9.8594-5.9727 15.52-7.082 0.55078-0.10547 1.082 0.25781 1.1875 0.8125 0.10547 0.55078-0.25781 1.082-0.80859 1.1875-5.9141 1.1562-11.43 3.832-16 7.7617-0.16406 0.18359-0.39453 0.30078-0.64062 0.32031z"/>
  <path d="m64 46c-3.9258 0-7.4648-2.3672-8.9648-5.9922-1.5-3.6289-0.66406-7.8008 2.1133-10.574 2.7773-2.7734 6.9531-3.5977 10.578-2.0898s5.9805 5.0508 5.9727 8.9766c-0.011719 5.3477-4.3516 9.6797-9.6992 9.6797zm0-17.422c-3.1328-0.007813-5.9609 1.875-7.1641 4.7656-1.207 2.8906-0.54688 6.2227 1.6641 8.4414s5.543 2.8828 8.4375 1.6875c2.8945-1.1953 4.7812-4.0195 4.7812-7.1523-0.03125-4.2422-3.4766-7.668-7.7188-7.6797z"/>
  <path d="m74.48 17.238h-20.859c-0.55469 0-1-0.44531-1-1 0-0.55078 0.44531-1 1-1h20.859c0.55078 0 1 0.44922 1 1 0 0.55469-0.44922 1-1 1z"/>
  <path d="m64 128c-3.7227 0.10938-7.0898-2.1914-8.3398-5.6992-0.80859 0.22266-1.6406 0.33594-2.4805 0.33984-4.418 0-8-3.582-8-8s3.582-8 8-8c0.78906 0 1.5781 0.097656 2.3398 0.30078l2.6797-11.559v-0.003906c0.058593-0.25391 0.21484-0.47266 0.4375-0.60938 0.22266-0.13672 0.49219-0.17578 0.74219-0.10938 0.25781 0.058594 0.47656 0.21484 0.61719 0.43359 0.14062 0.22266 0.18359 0.49219 0.125 0.74609l-2.9219 12.582c-0.066407 0.27344-0.25 0.50391-0.5 0.63672-0.25 0.13281-0.54688 0.13281-0.80078 0-0.87109-0.31641-1.7891-0.48047-2.7188-0.48047-3.3125 0-6 2.6875-6 6 0 3.3164 2.6875 6 6 6 0.96484 0 1.9141-0.19531 2.8008-0.57812 0.27344-0.12891 0.58594-0.12891 0.85938 0 0.25781 0.16016 0.44141 0.42188 0.5 0.71875 0.78516 3.0352 3.5234 5.1562 6.6602 5.1562s5.875-2.1211 6.6602-5.1562c0.058594-0.29688 0.24219-0.55859 0.5-0.71875 0.27344-0.12891 0.58594-0.12891 0.85938 0 0.88672 0.37891 1.8359 0.57812 2.8008 0.57812 3.3125 0 6-2.6836 6-6 0-3.3125-2.6875-6-6-6-0.92969 0.003906-1.8477 0.16406-2.7188 0.48047-0.25391 0.12891-0.55078 0.12891-0.80078 0-0.25-0.13281-0.43359-0.36328-0.5-0.63672l-2.9414-12.578v-0.003906c-0.125-0.55078 0.21875-1.1016 0.76953-1.2305 0.55469-0.125 1.1055 0.21875 1.2305 0.76953l2.6992 11.559v0.003906c0.76562-0.20312 1.5508-0.30078 2.3398-0.30078 4.418 0 8 3.582 8 8s-3.582 8-8 8c-0.83594-0.003906-1.6719-0.11719-2.4766-0.33984-1.2539 3.5391-4.668 5.8516-8.4219 5.6992z"/>
 </g>
</svg>
